<svg xmlns="http://www.w3.org/2000/svg" width="32" height="32"><path fill="#3939aa" d="M16,19.82a1.5,1.5,0,0,1-1.5-1.5V14a1.5,1.5,0,0,1,3,0v4.36A1.5,1.5,0,0,1,16,19.82Z"></path><path fill="#3939aa" d="M16,29.5A11.18,11.18,0,1,1,27.18,18.32,11.2,11.2,0,0,1,16,29.5Zm0-19.36a8.18,8.18,0,1,0,8.18,8.18A8.19,8.19,0,0,0,16,10.14Z"></path><path fill="#3939aa" d="M18.82 5.5H13.18a1.5 1.5 0 0 1 0-3h5.64a1.5 1.5 0 0 1 0 3zM23.19 12.63a1.5 1.5 0 0 1-1.06-2.56l2.49-2.49A1.5 1.5 0 0 1 26.74 9.7l-2.49 2.49A1.49 1.49 0 0 1 23.19 12.63z"></path></svg>