<!-- <?xml version="1.0" encoding="utf-8"?>
<svg version="1.1" xmlns="http://www.w3.org/2000/svg" xmlns:xlink="http://www.w3.org/1999/xlink" 
	 width="800px" height="800px" viewBox="0 0 32 32" xml:space="preserve" fill="currentColor">
<path d="M25,4v3h-3v3h-3v3h-3v3h-3v3h-3v3H7v3l-3,0v3h24V4H25z M23,20h-1v-2.293l-4.646,4.646
	l-0.707-0.707L21.293,17H19v-1h4V20z"/>
</svg> -->
<svg xmlns="http://www.w3.org/2000/svg" width="32" height="32" id="arrow"><g color="#000"><path fill="#cad1d8" style="isolation:auto;mix-blend-mode:normal" d="m-565 1374.362-10 13h5v15h10v-15h5l-10-13z" overflow="visible" transform="translate(581 -1372.362)"></path><path fill="#f05542" d="m-571.25 1382.487-1.25 1.625-2.5 3.25h5v15h10v-15h5l-2.5-3.25-1.25-1.625z" overflow="visible" style="isolation:auto;mix-blend-mode:normal" transform="translate(581 -1372.362)"></path></g></svg>