<!-- <?xml version="1.0" encoding="utf-8"?>
<svg version="1.1" xmlns="http://www.w3.org/2000/svg" xmlns:xlink="http://www.w3.org/1999/xlink" 
	 width="800px" height="800px" viewBox="0 0 32 32" xml:space="preserve" fill="currentColor">
<path d="M25,4v3h-3v3h-3v3h-3v3h-3v3h-3v3H7v3l-3,0v3h24V4H25z M17,18h1v2.293l4.646-4.646l0.707,0.707
	L18.707,21H21v1h-4V18z"/>
</svg> -->
<svg xmlns="http://www.w3.org/2000/svg" width="32" height="32" id="arrow"><g color="#000"><path style="isolation:auto;mix-blend-mode:normal" fill="#cad1d8" d="m-525 1402.362-10-13h5v-15h10v15h5l-10 13z" overflow="visible" transform="translate(541 -1372.362)"></path><path style="isolation:auto;mix-blend-mode:normal" fill="#25b39e" d="m-525 1402.362-10-13h5v-7h10v7h5z" overflow="visible" transform="translate(541 -1372.362)"></path></g></svg>