<svg xmlns="http://www.w3.org/2000/svg" width="32" height="32" fill="none" viewBox="0 0 32 32"><path fill="#443C67" fill-rule="evenodd" d="M20.3698 10.3405C21.5279 8.80916 23 6.50179 23 4.66667C23 2.64162 21.2091 1 19 1C16.7909 1 15 2.64162 15 4.66667C15 6.50179 16.4721 8.80916 17.6302 10.3405C18.3317 11.268 19.6683 11.268 20.3698 10.3405ZM19 6C19.5523 6 20 5.55228 20 5C20 4.44772 19.5523 4 19 4C18.4477 4 18 4.44772 18 5C18 5.55228 18.4477 6 19 6ZM15.2071 8.79289C15.5976 9.18342 15.5976 9.81658 15.2071 10.2071L11.2071 14.2071C10.8166 14.5976 10.1834 14.5976 9.79289 14.2071C9.40237 13.8166 9.40237 13.1834 9.79289 12.7929L13.7929 8.79289C14.1834 8.40237 14.8166 8.40237 15.2071 8.79289ZM9 16.6667C9 18.5018 7.52794 20.8092 6.36985 22.3405C5.66835 23.268 4.33165 23.268 3.63015 22.3405C2.47206 20.8092 1 18.5018 1 16.6667C1 14.6416 2.79086 13 5 13C7.20914 13 9 14.6416 9 16.6667ZM6 17C6 17.5523 5.55228 18 5 18C4.44772 18 4 17.5523 4 17C4 16.4477 4.44772 16 5 16C5.55228 16 6 16.4477 6 17Z" clip-rule="evenodd"></path></svg>
